<svg id="Iconly_Light_Work" data-name="Iconly/Light/Work" xmlns="http://www.w3.org/2000/svg" width="30" height="30" viewBox="0 0 30 30">
  <g id="Work" transform="translate(3.437 3.438)">
    <path id="Stroke_1" data-name="Stroke 1" d="M0,0S.178,2.173.219,2.858a4.779,4.779,0,0,0,1,2.658A3.71,3.71,0,0,0,4.358,6.884c1.546,0,12.79,0,14.336,0A3.71,3.71,0,0,0,21.83,5.515a4.79,4.79,0,0,0,1-2.658c.04-.685.218-2.858.218-2.858" transform="translate(0.068 15.908)" fill="none" stroke="#fff" stroke-linecap="round" stroke-linejoin="round" stroke-miterlimit="10" stroke-width="2"/>
    <path id="Stroke_3" data-name="Stroke 3" d="M0,3.224V2.76A2.759,2.759,0,0,1,2.76,0H5.988a2.76,2.76,0,0,1,2.76,2.76v.464" transform="translate(7.183)" fill="none" stroke="#fff" stroke-linecap="round" stroke-linejoin="round" stroke-miterlimit="10" stroke-width="2"/>
    <path id="Stroke_5" data-name="Stroke 5" d="M.5,1.618V0" transform="translate(11.056 15.792)" fill="none" stroke="#fff" stroke-linecap="round" stroke-linejoin="round" stroke-miterlimit="10" stroke-width="2"/>
    <path id="Stroke_7" data-name="Stroke 7" d="M0,3.823V8.156a20.409,20.409,0,0,0,8.422,3.128,3.225,3.225,0,0,1,6.231.012,20.407,20.407,0,0,0,8.459-3.14V3.823A3.813,3.813,0,0,0,19.291,0H3.834A3.824,3.824,0,0,0,0,3.823Z" transform="translate(0 3.226)" fill="none" stroke="#fff" stroke-linecap="round" stroke-linejoin="round" stroke-miterlimit="10" stroke-width="2"/>
  </g>
</svg>
