<svg xmlns="http://www.w3.org/2000/svg" width="27" height="27" viewBox="0 0 27 27">
  <g id="Iconly_Light_Category" data-name="Iconly/Light/Category" transform="translate(-1.083 -1.083)">
    <g id="Category" transform="translate(2.083 2.083)">
      <path id="Stroke_1" data-name="Stroke 1" d="M3.061,0H7.144A3.074,3.074,0,0,1,10.2,3.088V7.205a3.075,3.075,0,0,1-3.06,3.088H3.061A3.075,3.075,0,0,1,0,7.205V3.088A3.074,3.074,0,0,1,3.061,0Z" transform="translate(14.796 0)" fill="none" stroke="#fff" stroke-linecap="round" stroke-linejoin="round" stroke-miterlimit="10" stroke-width="2"/>
      <path id="Stroke_3" data-name="Stroke 3" d="M3.061,0H7.143A3.074,3.074,0,0,1,10.2,3.088V7.205a3.075,3.075,0,0,1-3.061,3.088H3.061A3.075,3.075,0,0,1,0,7.205V3.088A3.074,3.074,0,0,1,3.061,0Z" transform="translate(0 0)" fill="none" stroke="#fff" stroke-linecap="round" stroke-linejoin="round" stroke-miterlimit="10" stroke-width="2"/>
      <path id="Stroke_5" data-name="Stroke 5" d="M3.061,0H7.143A3.075,3.075,0,0,1,10.2,3.089V7.205a3.074,3.074,0,0,1-3.061,3.088H3.061A3.074,3.074,0,0,1,0,7.205V3.089A3.075,3.075,0,0,1,3.061,0Z" transform="translate(0 14.707)" fill="none" stroke="#fff" stroke-linecap="round" stroke-linejoin="round" stroke-miterlimit="10" stroke-width="2"/>
      <path id="Stroke_7" data-name="Stroke 7" d="M3.061,0H7.144A3.074,3.074,0,0,1,10.2,3.089V7.205a3.074,3.074,0,0,1-3.06,3.088H3.061A3.074,3.074,0,0,1,0,7.205V3.089A3.075,3.075,0,0,1,3.061,0Z" transform="translate(14.796 14.707)" fill="none" stroke="#fff" stroke-linecap="round" stroke-linejoin="round" stroke-miterlimit="10" stroke-width="2"/>
    </g>
  </g>
</svg>
