<svg xmlns="http://www.w3.org/2000/svg" width="27" height="27" viewBox="0 0 27 27">
  <g id="Iconly_Light_Chat" data-name="Iconly/Light/Chat" transform="translate(1 1)">
    <g id="Chat">
      <path id="Combined_Shape" data-name="Combined Shape" d="M11.357,1.458a1.461,1.461,0,1,1,1.461,1.461A1.461,1.461,0,0,1,11.357,1.458Zm-5.678,0a1.46,1.46,0,1,1,1.46,1.461A1.461,1.461,0,0,1,5.679,1.458ZM0,1.458A1.461,1.461,0,1,1,1.46,2.919,1.461,1.461,0,0,1,0,1.458Z" transform="translate(5.658 11.32)" fill="#fff" stroke="#fff" stroke-width="1"/>
      <path id="Stroke_7" data-name="Stroke 7" d="M12.525,0A12.508,12.508,0,0,0,0,12.519a13.23,13.23,0,0,0,1.688,6.246,1.313,1.313,0,0,1,.087,1.128L.938,22.7a.78.78,0,0,0,1.025.975l2.525-.75a2.121,2.121,0,0,1,1.863.451A12.5,12.5,0,1,0,12.525,0Z" fill="none" stroke="#fff" stroke-linecap="round" stroke-linejoin="round" stroke-miterlimit="10" stroke-width="2"/>
    </g>
  </g>
</svg>
