<svg xmlns="http://www.w3.org/2000/svg" width="21.723" height="27" viewBox="0 0 21.723 27">
  <g id="Iconly_Light_Profile" data-name="Iconly/Light/Profile" transform="translate(-3 -1.5)">
    <g id="Profile" transform="translate(4 2.5)">
      <circle id="Ellipse_736" cx="6.214" cy="6.214" r="6.214" transform="translate(3.643 0)" fill="none" stroke="#fff" stroke-linecap="round" stroke-linejoin="round" stroke-miterlimit="10" stroke-width="2"/>
      <path id="Path_33945" d="M0,3.922A2.881,2.881,0,0,1,.286,2.661C.881,1.47,2.559.839,3.952.554A21.833,21.833,0,0,1,7,.125a32.582,32.582,0,0,1,5.7,0,22.083,22.083,0,0,1,3.048.429c1.393.286,3.071.857,3.667,2.107a2.952,2.952,0,0,1,0,2.536c-.6,1.25-2.274,1.821-3.667,2.1a20.44,20.44,0,0,1-3.048.44A33.582,33.582,0,0,1,8.059,7.8,5.288,5.288,0,0,1,7,7.732a20.059,20.059,0,0,1-3.036-.44C2.559,7.018.893,6.446.286,5.2A2.964,2.964,0,0,1,0,3.922Z" transform="translate(0 17.148)" fill="none" stroke="#fff" stroke-linecap="round" stroke-linejoin="round" stroke-miterlimit="10" stroke-width="2"/>
    </g>
  </g>
</svg>
