<svg id="Iconly_Light_Setting" data-name="Iconly/Light/Setting" xmlns="http://www.w3.org/2000/svg" width="30" height="30" viewBox="0 0 30 30">
  <g id="Setting" transform="translate(4.098 2.848)">
    <path id="Path_33946" d="M21.91,6.682l-.778-1.35a2.391,2.391,0,0,0-3.261-.881h0A2.38,2.38,0,0,1,14.61,3.6a2.288,2.288,0,0,1-.32-1.144h0A2.391,2.391,0,0,0,11.9,0H10.331a2.38,2.38,0,0,0-2.38,2.391h0A2.391,2.391,0,0,1,5.56,4.748a2.288,2.288,0,0,1-1.144-.32h0a2.391,2.391,0,0,0-3.261.881L.32,6.682a2.391,2.391,0,0,0,.87,3.261h0a2.391,2.391,0,0,1,1.2,2.071,2.391,2.391,0,0,1-1.2,2.071h0a2.38,2.38,0,0,0-.87,3.249h0L1.109,18.7a2.391,2.391,0,0,0,3.261.927h0a2.368,2.368,0,0,1,3.249.87,2.288,2.288,0,0,1,.32,1.144h0a2.391,2.391,0,0,0,2.391,2.391H11.9a2.391,2.391,0,0,0,2.391-2.38h0a2.38,2.38,0,0,1,2.391-2.391,2.437,2.437,0,0,1,1.144.32h0a2.391,2.391,0,0,0,3.261-.87h0l.824-1.373a2.38,2.38,0,0,0-.87-3.261h0a2.38,2.38,0,0,1-.87-3.261,2.346,2.346,0,0,1,.87-.87h0a2.391,2.391,0,0,0,.87-3.249h0Z" transform="translate(0 0)" fill="none" stroke="#fff" stroke-linecap="round" stroke-linejoin="round" stroke-miterlimit="10" stroke-width="2"/>
    <circle id="Ellipse_737" cx="3.295" cy="3.295" r="3.295" transform="translate(7.825 8.719)" fill="none" stroke="#fff" stroke-linecap="round" stroke-linejoin="round" stroke-miterlimit="10" stroke-width="2"/>
  </g>
</svg>
