<svg xmlns="http://www.w3.org/2000/svg" xmlns:xlink="http://www.w3.org/1999/xlink" width="307.525" height="240" viewBox="0 0 307.525 240">
  <defs>
    <linearGradient id="linear-gradient" x1="0.743" y1="0.725" x2="0.082" y2="0.084" gradientUnits="objectBoundingBox">
      <stop offset="0" stop-color="#006838"/>
      <stop offset="1" stop-color="#47e51d"/>
    </linearGradient>
    <linearGradient id="linear-gradient-2" x1="0.185" y1="0.892" x2="0.675" y2="0.346" xlink:href="#linear-gradient"/>
    <linearGradient id="linear-gradient-3" x1="0.374" y1="0.619" x2="0.823" y2="-0.211" xlink:href="#linear-gradient"/>
    <linearGradient id="linear-gradient-4" x1="0.74" y1="0.678" x2="0.251" y2="0.171" xlink:href="#linear-gradient"/>
    <linearGradient id="linear-gradient-5" x1="0.453" y1="0.901" x2="0.511" y2="0.412" xlink:href="#linear-gradient"/>
    <linearGradient id="linear-gradient-6" x1="0.361" y1="0.918" x2="0.46" y2="0.41" xlink:href="#linear-gradient"/>
    <linearGradient id="linear-gradient-7" x1="0.473" y1="0.947" x2="0.506" y2="0.402" xlink:href="#linear-gradient"/>
    <linearGradient id="linear-gradient-8" y1="0.5" x2="1" y2="0.5" gradientUnits="objectBoundingBox">
      <stop offset="0" stop-color="#939597"/>
      <stop offset="0.565" stop-color="#dfdada"/>
      <stop offset="1" stop-color="#eaeaea"/>
    </linearGradient>
    <linearGradient id="linear-gradient-9" y1="0.5" x2="1" y2="0.5" gradientUnits="objectBoundingBox">
      <stop offset="0" stop-color="#939597"/>
      <stop offset="0.565" stop-color="#cbcaca"/>
      <stop offset="1" stop-color="#eaeaea"/>
    </linearGradient>
    <linearGradient id="linear-gradient-10" y1="0.5" x2="1" y2="0.5" gradientUnits="objectBoundingBox">
      <stop offset="0" stop-color="#3a3a3a"/>
      <stop offset="0.565" stop-color="#939597"/>
      <stop offset="1" stop-color="#eaeaea"/>
    </linearGradient>
    <linearGradient id="linear-gradient-11" x1="0.5" y1="0.028" x2="0.5" y2="0.958" gradientUnits="objectBoundingBox">
      <stop offset="0" stop-color="#3a3a3a"/>
      <stop offset="1" stop-color="#3a3a3a"/>
    </linearGradient>
    <linearGradient id="linear-gradient-12" y1="0.5" x2="1" y2="0.5" gradientUnits="objectBoundingBox">
      <stop offset="0" stop-color="#23538c"/>
      <stop offset="1" stop-color="#230482"/>
    </linearGradient>
    <linearGradient id="linear-gradient-13" y1="0.5" x2="1" y2="0.5" gradientUnits="objectBoundingBox">
      <stop offset="0" stop-color="#e4f2ff"/>
      <stop offset="1" stop-color="#91d0c5"/>
    </linearGradient>
    <linearGradient id="linear-gradient-18" y1="0.5" x2="1" y2="0.5" gradientUnits="objectBoundingBox">
      <stop offset="0" stop-color="#91d01d"/>
      <stop offset="1" stop-color="#f9ed32"/>
    </linearGradient>
    <linearGradient id="linear-gradient-19" x1="0.5" y1="0.954" x2="0.5" y2="0.032" gradientUnits="objectBoundingBox">
      <stop offset="0" stop-color="#35495e"/>
      <stop offset="0.565" stop-color="#315172"/>
      <stop offset="1" stop-color="#35495e"/>
    </linearGradient>
  </defs>
  <g id="Group_16150" data-name="Group 16150" transform="translate(-758.237 -155)">
    <circle id="Ellipse_59" data-name="Ellipse 59" cx="120" cy="120" r="120" transform="translate(792 155)" fill="#d0f0d6"/>
    <g id="Group_246" data-name="Group 246" transform="translate(654.706 -13.13)">
      <g id="Group_245" data-name="Group 245" transform="translate(103.531 190.476)">
        <g id="Group_216" data-name="Group 216" transform="translate(0 74.372)">
          <path id="Path_69" data-name="Path 69" d="M131.454,298.151c-5.747-2.258.616,8.62-.41,7.389s-12.724-22.781-16.419-18.882,2.668,10.056,1.847,9.647-12.52-13.957-12.93-6.978,10.878,13.545,10.878,13.545-9.852-2.258-5.542,2.052,14.162,7.184,14.162,7.184-10.262-1.026-5.747,2.463,14.161,5.542,14.161,5.542-9.235.205-4.515,1.847,18.883,5.746,18.883,5.746S137.2,300.409,131.454,298.151Z" transform="translate(-103.531 -257.709)" fill="url(#linear-gradient)"/>
          <path id="Path_70" data-name="Path 70" d="M167.953,305.708c-2.052.821,1.026-2.052,1.642-9.236s-12.109,13.136-13.546,14.162.411-1.026-.821-6.773-12.724,23.6-12.724,23.6,21.55-5.952,25.86-7.388-2.052-3.489-2.052-3.489,9.647.616,15.187-1.642-5.951-3.9-7.183-4.926,5.746-1.437,10.466-9.852S170.006,304.888,167.953,305.708Z" transform="translate(-100.624 -257.057)" fill="url(#linear-gradient-2)"/>
          <path id="Path_71" data-name="Path 71" d="M168.732,290.778c-1.847.821,5.336-8.415,5.952-14.572s-12.93,12.93-14.162,15.393,1.026-4.31-.821-10.468-7.8,17.855-8.826,20.113-.2-2.258-2.872-8.619-5.131,35.3-4.926,36.326c0,0,9.645-9.03,12.519-14.366s-1.231-4.31-1.231-4.31,6.773-3.284,10.468-6.363-3.489-4.926-3.284-5.542,11.288-4.31,15.188-8.824S170.58,289.957,168.732,290.778Z" transform="translate(-100.582 -258.545)" fill="url(#linear-gradient-3)"/>
          <path id="Path_72" data-name="Path 72" d="M141.642,306.576a70.255,70.255,0,0,0,2.668-12.315c.41-5.13-4.721-1.641-4.721-1.641s1.231-9.441-.41-16.42-2.668,6.568-3.284,7.389-1.642-3.489-7.389-10.057,4.1,15.188,4.721,18.267-1.231-1.642-7.8-3.694,8.826,20.729,8.826,21.755-1.026-1.642-6.157-3.284,15.393,20.523,16.214,22.165c0,0,1.642-14.571,2.258-20.318S141.642,306.576,141.642,306.576Z" transform="translate(-102.019 -258.745)" fill="url(#linear-gradient-4)"/>
          <path id="Path_73" data-name="Path 73" d="M140.568,295.355l.028.06C140.707,295.638,140.708,295.57,140.568,295.355Z" transform="translate(-100.768 -257.026)" fill="url(#linear-gradient-5)"/>
          <path id="Path_74" data-name="Path 74" d="M148.819,272.216s-.615-8.209-4.925-12.108-1.437,20.523-1.642,21.755-1.026-2.873-5.747-4.515c-4.655-1.619,3.858,19.3,4.487,20.669.14.215.139.283.028.06l-.028-.06c-.376-.578-1.809-2.252-5.1-2.4-4.515-.205,7.389,33.658,7.389,34.274,0,0,8-9.03,8.826-13.135s-4.721-1.437-4.721-1.437,4.309-3.9,7.388-12.315-6.362-2.258-6.567-2.873,6.977-5.541,8.824-15.8c1.412-7.84-4-4.062-6.638-1.841a18,18,0,0,1-1.366,1.225s.551-.539,1.366-1.225a27.625,27.625,0,0,0,8.074-15.809C159.9,255.8,148.819,272.216,148.819,272.216Z" transform="translate(-101.194 -259.686)" fill="url(#linear-gradient-6)"/>
          <path id="Path_75" data-name="Path 75" d="M149.409,280.9c-.815.686-1.366,1.225-1.366,1.225A17.994,17.994,0,0,0,149.409,280.9Z" transform="translate(-100.211 -258.104)" fill="url(#linear-gradient-7)"/>
          <g id="Group_215" data-name="Group 215" transform="translate(20.324 66.853)">
            <path id="Path_76" data-name="Path 76" d="M132.774,367.774h24.868l5.921-39.671H126.853Z" transform="translate(-122.116 -321.436)" fill="url(#linear-gradient-8)"/>
            <rect id="Rectangle_692" data-name="Rectangle 692" width="46.184" height="8.289" rx="1.478" fill="url(#linear-gradient-9)"/>
          </g>
        </g>
        <g id="Group_232" data-name="Group 232" transform="translate(243.641 41.448)">
          <g id="Group_231" data-name="Group 231" transform="translate(1.036)">
            <g id="Group_230" data-name="Group 230" transform="translate(9.373)">
              <g id="Group_226" data-name="Group 226" transform="translate(0.274)">
                <path id="Path_77" data-name="Path 77" d="M382.993,233.187l-12.862-4.036a2.238,2.238,0,0,0-2.8,1.452L340.31,314.86a2.238,2.238,0,0,0,1.428,2.808l13.326,4.407a2.238,2.238,0,0,0,2.838-1.455l26.556-84.628A2.237,2.237,0,0,0,382.993,233.187Z" transform="translate(-340.203 -229.048)" fill="#84d2e6"/>
                <path id="Path_78" data-name="Path 78" d="M367.33,230.6,340.31,314.86a2.238,2.238,0,0,0,1.428,2.808l7.132,2.359L377.292,231.4l-7.161-2.247A2.238,2.238,0,0,0,367.33,230.6Z" transform="translate(-340.203 -229.048)" fill="#97deef"/>
                <g id="Group_225" data-name="Group 225" transform="translate(3.784 8.163)">
                  <g id="Group_217" data-name="Group 217" transform="translate(20.474)">
                    <path id="Path_79" data-name="Path 79" d="M371.008,238.45l-5.578-1.788a.378.378,0,1,0-.231.72l5.578,1.788a.378.378,0,0,0,.231-.72Z" transform="translate(-362.617 -236.644)" fill="#fff"/>
                    <path id="Path_80" data-name="Path 80" d="M367.9,239.31l-3.01-.965a.378.378,0,0,0-.231.719l3.011.966a.378.378,0,1,0,.23-.72Z" transform="translate(-362.657 -236.518)" fill="#fff"/>
                    <path id="Path_81" data-name="Path 81" d="M367.361,240.993l-3.011-.966a.378.378,0,0,0-.23.72l3.01.966a.378.378,0,0,0,.231-.72Z" transform="translate(-362.697 -236.393)" fill="#fff"/>
                    <path id="Path_82" data-name="Path 82" d="M366.789,242.777l-3.011-.966a.378.378,0,1,0-.23.72l3.01.966a.378.378,0,0,0,.231-.72Z" transform="translate(-362.74 -236.26)" fill="#fff"/>
                    <path id="Path_83" data-name="Path 83" d="M366.281,244.359l-3.01-.966a.378.378,0,0,0-.231.72l3.011.965a.377.377,0,1,0,.23-.719Z" transform="translate(-362.778 -236.142)" fill="#fff"/>
                  </g>
                  <g id="Group_218" data-name="Group 218" transform="translate(17.549 9.121)">
                    <path id="Path_84" data-name="Path 84" d="M368.286,246.938l-5.578-1.788a.378.378,0,1,0-.231.719l5.578,1.789a.378.378,0,0,0,.231-.72Z" transform="translate(-359.895 -245.132)" fill="#fff"/>
                    <path id="Path_85" data-name="Path 85" d="M365.179,247.8l-3.011-.966a.378.378,0,0,0-.231.72l3.011.966a.378.378,0,0,0,.231-.72Z" transform="translate(-359.935 -245.006)" fill="#fff"/>
                    <path id="Path_86" data-name="Path 86" d="M364.639,249.481l-3.011-.966a.378.378,0,1,0-.23.72l3.01.965a.378.378,0,0,0,.231-.719Z" transform="translate(-359.976 -244.881)" fill="#fff"/>
                    <path id="Path_87" data-name="Path 87" d="M364.067,251.265l-3.011-.966a.378.378,0,0,0-.23.72l3.01.965a.378.378,0,0,0,.231-.719Z" transform="translate(-360.018 -244.748)" fill="#fff"/>
                    <path id="Path_88" data-name="Path 88" d="M363.56,252.846l-3.011-.965a.378.378,0,0,0-.231.72l3.011.965a.378.378,0,0,0,.231-.72Z" transform="translate(-360.056 -244.63)" fill="#fff"/>
                  </g>
                  <g id="Group_219" data-name="Group 219" transform="translate(14.625 18.242)">
                    <path id="Path_89" data-name="Path 89" d="M365.564,255.426l-5.578-1.789a.378.378,0,0,0-.231.72l5.578,1.789a.378.378,0,1,0,.231-.72Z" transform="translate(-357.173 -253.619)" fill="#fff"/>
                    <path id="Path_90" data-name="Path 90" d="M362.457,256.286l-3.011-.966a.378.378,0,1,0-.23.72l3.01.965a.378.378,0,1,0,.231-.719Z" transform="translate(-357.214 -253.494)" fill="#fff"/>
                    <path id="Path_91" data-name="Path 91" d="M361.917,257.968l-3.01-.965a.378.378,0,1,0-.231.72l3.01.965a.378.378,0,1,0,.231-.72Z" transform="translate(-357.254 -253.368)" fill="#fff"/>
                    <path id="Path_92" data-name="Path 92" d="M361.345,259.752l-3.01-.965a.378.378,0,1,0-.231.72l3.01.965a.378.378,0,0,0,.231-.72Z" transform="translate(-357.296 -253.235)" fill="#fff"/>
                    <path id="Path_93" data-name="Path 93" d="M360.838,261.334l-3.011-.965a.378.378,0,0,0-.231.72l3.011.965a.378.378,0,0,0,.231-.72Z" transform="translate(-357.334 -253.117)" fill="#fff"/>
                  </g>
                  <g id="Group_220" data-name="Group 220" transform="translate(11.7 27.363)">
                    <path id="Path_94" data-name="Path 94" d="M362.842,263.914l-5.578-1.789a.378.378,0,0,0-.231.72l5.578,1.789a.378.378,0,1,0,.231-.72Z" transform="translate(-354.451 -262.107)" fill="#fff"/>
                    <path id="Path_95" data-name="Path 95" d="M359.735,264.773l-3.011-.965a.378.378,0,1,0-.23.72l3.01.965a.378.378,0,0,0,.231-.72Z" transform="translate(-354.492 -261.982)" fill="#fff"/>
                    <path id="Path_96" data-name="Path 96" d="M359.2,266.456l-3.01-.965a.378.378,0,1,0-.231.72l3.01.965a.378.378,0,1,0,.231-.72Z" transform="translate(-354.532 -261.856)" fill="#fff"/>
                    <path id="Path_97" data-name="Path 97" d="M358.623,268.24l-3.01-.965a.378.378,0,1,0-.231.719l3.01.966a.378.378,0,1,0,.231-.72Z" transform="translate(-354.574 -261.723)" fill="#fff"/>
                    <path id="Path_98" data-name="Path 98" d="M358.116,269.822l-3.011-.965a.377.377,0,1,0-.23.719l3.01.966a.378.378,0,0,0,.231-.72Z" transform="translate(-354.612 -261.605)" fill="#fff"/>
                  </g>
                  <g id="Group_221" data-name="Group 221" transform="translate(8.775 36.483)">
                    <path id="Path_99" data-name="Path 99" d="M360.12,272.4l-5.578-1.788a.378.378,0,0,0-.231.72l5.579,1.788a.378.378,0,1,0,.23-.72Z" transform="translate(-351.729 -270.595)" fill="#fff"/>
                    <path id="Path_100" data-name="Path 100" d="M357.013,273.261,354,272.3a.378.378,0,1,0-.231.72l3.01.965a.378.378,0,0,0,.231-.72Z" transform="translate(-351.77 -270.469)" fill="#fff"/>
                    <path id="Path_101" data-name="Path 101" d="M356.473,274.944l-3.01-.965a.378.378,0,0,0-.231.719l3.01.966a.378.378,0,1,0,.231-.72Z" transform="translate(-351.81 -270.344)" fill="#fff"/>
                    <path id="Path_102" data-name="Path 102" d="M355.9,276.728l-3.01-.965a.378.378,0,1,0-.231.719l3.01.966a.378.378,0,1,0,.231-.72Z" transform="translate(-351.852 -270.211)" fill="#fff"/>
                    <path id="Path_103" data-name="Path 103" d="M355.394,278.31l-3.01-.966a.378.378,0,1,0-.231.72l3.01.966a.378.378,0,0,0,.231-.72Z" transform="translate(-351.89 -270.093)" fill="#fff"/>
                  </g>
                  <g id="Group_222" data-name="Group 222" transform="translate(5.849 45.604)">
                    <path id="Path_104" data-name="Path 104" d="M357.4,280.889,351.82,279.1a.378.378,0,1,0-.23.72l5.578,1.788a.378.378,0,1,0,.23-.72Z" transform="translate(-349.007 -279.083)" fill="#fff"/>
                    <path id="Path_105" data-name="Path 105" d="M354.291,281.749l-3.01-.966a.378.378,0,1,0-.231.72l3.01.966a.378.378,0,1,0,.231-.72Z" transform="translate(-349.048 -278.957)" fill="#fff"/>
                    <path id="Path_106" data-name="Path 106" d="M353.751,283.432l-3.01-.966a.378.378,0,0,0-.231.72l3.011.966a.378.378,0,0,0,.23-.72Z" transform="translate(-349.088 -278.832)" fill="#fff"/>
                    <path id="Path_107" data-name="Path 107" d="M353.179,285.216l-3.01-.966a.378.378,0,0,0-.231.72l3.011.965a.377.377,0,1,0,.23-.719Z" transform="translate(-349.13 -278.699)" fill="#fff"/>
                    <path id="Path_108" data-name="Path 108" d="M352.672,286.8l-3.01-.965a.378.378,0,1,0-.231.72l3.01.965a.378.378,0,1,0,.231-.72Z" transform="translate(-349.168 -278.581)" fill="#fff"/>
                  </g>
                  <g id="Group_223" data-name="Group 223" transform="translate(2.924 54.725)">
                    <path id="Path_109" data-name="Path 109" d="M354.677,289.377l-5.578-1.789a.378.378,0,1,0-.231.72l5.578,1.789a.378.378,0,0,0,.231-.72Z" transform="translate(-346.285 -287.57)" fill="#fff"/>
                    <path id="Path_110" data-name="Path 110" d="M351.569,290.237l-3.01-.966a.378.378,0,0,0-.231.72l3.01.965a.378.378,0,1,0,.231-.719Z" transform="translate(-346.326 -287.445)" fill="#fff"/>
                    <path id="Path_111" data-name="Path 111" d="M351.03,291.92l-3.011-.966a.378.378,0,0,0-.231.72l3.011.965a.378.378,0,1,0,.231-.719Z" transform="translate(-346.366 -287.319)" fill="#fff"/>
                    <path id="Path_112" data-name="Path 112" d="M350.458,293.7l-3.011-.965a.378.378,0,0,0-.231.72l3.011.965a.378.378,0,0,0,.231-.72Z" transform="translate(-346.408 -287.186)" fill="#fff"/>
                    <path id="Path_113" data-name="Path 113" d="M349.95,295.285l-3.01-.965a.378.378,0,1,0-.231.72l3.01.965a.378.378,0,1,0,.231-.72Z" transform="translate(-346.446 -287.068)" fill="#fff"/>
                  </g>
                  <g id="Group_224" data-name="Group 224" transform="translate(0 63.846)">
                    <path id="Path_114" data-name="Path 114" d="M351.955,297.865l-5.578-1.789a.378.378,0,1,0-.231.72l5.578,1.789a.378.378,0,0,0,.231-.72Z" transform="translate(-343.564 -296.058)" fill="#fff"/>
                    <path id="Path_115" data-name="Path 115" d="M348.847,298.724l-3.01-.965a.378.378,0,0,0-.231.72l3.011.965a.378.378,0,1,0,.23-.72Z" transform="translate(-343.604 -295.933)" fill="#fff"/>
                    <path id="Path_116" data-name="Path 116" d="M348.308,300.407l-3.011-.965a.378.378,0,1,0-.23.72l3.01.965a.378.378,0,0,0,.231-.72Z" transform="translate(-343.644 -295.807)" fill="#fff"/>
                    <path id="Path_117" data-name="Path 117" d="M347.736,302.191l-3.011-.965a.378.378,0,0,0-.231.72l3.011.965a.378.378,0,0,0,.231-.72Z" transform="translate(-343.687 -295.674)" fill="#fff"/>
                    <path id="Path_118" data-name="Path 118" d="M347.228,303.773l-3.01-.965a.378.378,0,0,0-.231.72l3.011.965a.378.378,0,1,0,.23-.72Z" transform="translate(-343.725 -295.556)" fill="#fff"/>
                  </g>
                </g>
              </g>
              <g id="Group_227" data-name="Group 227" transform="translate(24.021 21.651)">
                <path id="Path_119" data-name="Path 119" d="M374.43,249.48l-2.8-.276a1.546,1.546,0,0,0-1.69,1.386l-.759,7.692,5.874.579.759-7.691A1.547,1.547,0,0,0,374.43,249.48Z" transform="translate(-361.788 -249.196)" fill="#f2ec22"/>
                <path id="Path_120" data-name="Path 120" d="M366.026,320.907l6.013-14.148-9.145-.9Z" transform="translate(-362.258 -244.97)" fill="#a7a7a7"/>
                <path id="Path_121" data-name="Path 121" d="M366.276,319.69l5.51-12.965-4.19-.413Z" transform="translate(-362.005 -244.936)" fill="#dbd8d5"/>
                <path id="Path_122" data-name="Path 122" d="M366.85,318.237l4.894-11.515-3.722-.367Z" transform="translate(-361.963 -244.933)" fill="#7c7b79"/>
                <rect id="Rectangle_693" data-name="Rectangle 693" width="54.679" height="9.336" rx="1.507" transform="translate(0.45 62.017) rotate(-84.366)" fill="#23538c"/>
                <path id="Path_123" data-name="Path 123" d="M367.919,257.871l-5.049,51.192a1.62,1.62,0,0,0,1.453,1.771l2.914.287,5.366-54.415-2.914-.288A1.619,1.619,0,0,0,367.919,257.871Z" transform="translate(-362.26 -248.658)" fill="#144270"/>
                <path id="Path_124" data-name="Path 124" d="M379.793,261.552,367.1,260.3a.482.482,0,0,0-.528.433l-.466,4.726a.483.483,0,0,0,.433.529l10.915,1.077a.484.484,0,0,1,.434.529l-.956,9.694a.485.485,0,0,1-.529.434l-.259-.026a.483.483,0,0,0-.51.618l1.539,5.205a.484.484,0,0,0,.946-.09l1.591-16.141.514-5.207A.483.483,0,0,0,379.793,261.552Z" transform="translate(-362.018 -248.368)" fill="#f2ec22"/>
                <path id="Path_125" data-name="Path 125" d="M365.848,320.055l1.11-2.612-1.688-.166Z" transform="translate(-362.08 -244.118)" fill="#0e2142"/>
                <path id="Path_126" data-name="Path 126" d="M372.373,304.54l-9.25-.912a.518.518,0,0,0-.567.466l-.251,2.692a.518.518,0,0,0,.465.563l9.25.912a.518.518,0,0,0,.567-.467l.251-2.691A.518.518,0,0,0,372.373,304.54Z" transform="translate(-362.302 -245.136)" fill="#0e2142"/>
              </g>
              <g id="Group_229" data-name="Group 229" transform="translate(0 30.217)">
                <path id="Path_127" data-name="Path 127" d="M352.535,269.2l-9.943,2.614,11.094,42.417a3.67,3.67,0,0,0,.781,1.474l6.623,7.6a.322.322,0,0,0,.559-.147l2.027-9.878a3.66,3.66,0,0,0-.046-1.668Z" transform="translate(-339.751 -256.27)" fill="#fcd7a3"/>
                <path id="Path_128" data-name="Path 128" d="M359.98,319.825a.322.322,0,0,0,.559-.147l.768-3.746-3.839,1.009Z" transform="translate(-338.642 -252.785)" fill="#0f2145"/>
                <path id="Path_129" data-name="Path 129" d="M348.991,270.012l-3.315.871L356.8,313.4a1.713,1.713,0,0,0,3.314-.871Z" transform="translate(-339.521 -256.21)" fill="#fff"/>
                <g id="Group_228" data-name="Group 228" transform="translate(2.841 12.931)">
                  <path id="Path_130" data-name="Path 130" d="M352.075,269.2l-3.314.871,11.12,42.516a1.714,1.714,0,0,0,3.315-.872Z" transform="translate(-342.132 -269.201)" fill="#f23436"/>
                  <path id="Path_131" data-name="Path 131" d="M345.906,270.823l-3.314.871,11.12,42.516a1.714,1.714,0,0,0,3.315-.871Z" transform="translate(-342.592 -269.08)" fill="#f23436"/>
                </g>
                <path id="Path_132" data-name="Path 132" d="M345.818,257.281l-3.314.871a3.427,3.427,0,0,0-2.443,4.187l2.336,8.889,9.944-2.614-2.337-8.889A3.428,3.428,0,0,0,345.818,257.281Z" transform="translate(-339.948 -257.168)" fill="#fe6f71"/>
                <rect id="Rectangle_694" data-name="Rectangle 694" width="10.281" height="4.362" transform="matrix(0.967, -0.254, 0.254, 0.967, 1.935, 12.101)" fill="#0f2145"/>
              </g>
            </g>
            <path id="Path_133" data-name="Path 133" d="M331.226,364.562a5.828,5.828,0,0,0,5.827,5.828h42.373a5.828,5.828,0,0,0,5.827-5.828V292.541H331.226Z" transform="translate(-331.226 -224.312)" fill="url(#linear-gradient-10)"/>
            <path id="Path_134" data-name="Path 134" d="M356.8,370.389h20.719a5.828,5.828,0,0,0,5.827-5.828V292.541H356.8Z" transform="translate(-329.319 -224.312)" fill="#eaeaea" style="mix-blend-mode: multiply;isolation: isolate"/>
            <path id="Path_135" data-name="Path 135" d="M371.492,370.389h4.931a5.828,5.828,0,0,0,5.827-5.828V292.541H371.492Z" transform="translate(-328.223 -224.312)" fill="#eaeaea" style="mix-blend-mode: multiply;isolation: isolate"/>
          </g>
          <path id="Rectangle_695" data-name="Rectangle 695" d="M.925,0h54.2a.925.925,0,0,1,.925.925V4.988a.926.926,0,0,1-.926.926H.925A.925.925,0,0,1,0,4.989V.925A.925.925,0,0,1,.925,0Z" transform="translate(0 66.894)" fill="#fff"/>
        </g>
        <g id="Group_233" data-name="Group 233" transform="translate(64.573)">
          <path id="Path_136" data-name="Path 136" d="M226.072,315.1l-10.1,48h80.507l-10.1-48Z" transform="translate(-159.717 -181.181)" fill="#dbd9dd"/>
          <rect id="Rectangle_696" data-name="Rectangle 696" width="193.017" height="147.025" rx="7.367" fill="url(#linear-gradient-11)"/>
          <path id="Path_137" data-name="Path 137" d="M163.622,320.9a7.917,7.917,0,0,0,7.916,7.917H348.722a7.916,7.916,0,0,0,7.916-7.917V306.949H163.622Z" transform="translate(-163.622 -181.789)" fill="#fff"/>
          <rect id="Rectangle_697" data-name="Rectangle 697" width="183.97" height="107.064" transform="translate(4.524 10.556)" fill="#4fba6f"/>
          <path id="Path_138" data-name="Path 138" d="M351.8,307.363V200.3H167.832Z" transform="translate(-163.308 -189.744)" fill="#f2faff"/>
          <path id="Path_139" data-name="Path 139" d="M306.949,354.49H207.68a6.292,6.292,0,1,0,0,12.583h99.269a6.292,6.292,0,0,0,0-12.583Z" transform="translate(-160.805 -178.243)" fill="#fff"/>
        </g>
        <g id="Group_236" data-name="Group 236" transform="translate(58.528 82.384)">
          <g id="Group_234" data-name="Group 234">
            <rect id="Rectangle_698" data-name="Rectangle 698" width="56.625" height="106.521" rx="4.499" fill="#3a3a3a"/>
            <rect id="Rectangle_699" data-name="Rectangle 699" width="50.742" height="87.508" transform="translate(2.942 6.417)" fill="#4fba6f"/>
            <path id="Path_140" data-name="Path 140" d="M211.475,360.622V273.114H160.734Z" transform="translate(-157.792 -266.697)" fill="#f2faff"/>
          </g>
          <circle id="Ellipse_37" data-name="Ellipse 37" cx="23.372" cy="23.372" r="23.372" transform="translate(4.94 29.888)" fill="#3a3a3a"/>
          <g id="Group_235" data-name="Group 235" transform="translate(16.358 36.778)">
            <path id="Path_141" data-name="Path 141" d="M173.219,305.256l.038,25.942,19.144-.185,4.727-2.949v-26.7H177.1A3.883,3.883,0,0,0,173.219,305.256Z" transform="translate(-173.219 -301.368)" fill="#3f5c6c"/>
            <path id="Path_142" data-name="Path 142" d="M173.219,305.256l.038,25.942,4.029-.039V301.368H177.1A3.882,3.882,0,0,0,173.219,305.256Z" transform="translate(-173.219 -301.368)" fill="#3f5c6c"/>
            <path id="Path_143" data-name="Path 143" d="M173.254,329.344a3.135,3.135,0,0,0,3.135,3.135h20.736v-.414a2.733,2.733,0,0,1,0-5.441v-.414H176.389A3.134,3.134,0,0,0,173.254,329.344Z" transform="translate(-173.216 -299.515)" fill="#4d79f5"/>
            <path id="Path_144" data-name="Path 144" d="M173.626,329.317a2.738,2.738,0,0,0,2.735,2.735H197.1v-.014a2.733,2.733,0,0,1,0-5.441v-.014H176.361A2.737,2.737,0,0,0,173.626,329.317Z" transform="translate(-173.189 -299.487)" fill="#d4f4fc"/>
          </g>
        </g>
        <g id="Group_241" data-name="Group 241" transform="translate(114.712 149.852)">
          <g id="Group_237" data-name="Group 237" transform="translate(0 28.278)">
            <path id="Path_145" data-name="Path 145" d="M210.281,361.011a4.769,4.769,0,0,0,4.769,4.769h31.556v-.629a4.16,4.16,0,0,1,0-8.281v-.629H215.05A4.769,4.769,0,0,0,210.281,361.011Z" transform="translate(-210.281 -356.242)" fill="#84d2e6"/>
            <path id="Path_146" data-name="Path 146" d="M210.847,360.969a4.166,4.166,0,0,0,4.161,4.161h31.556v-.02a4.16,4.16,0,0,1,0-8.281v-.02H215.008A4.166,4.166,0,0,0,210.847,360.969Z" transform="translate(-210.239 -356.2)" fill="#fcfcd4"/>
          </g>
          <g id="Group_238" data-name="Group 238" transform="translate(2.548 18.851)">
            <path id="Path_147" data-name="Path 147" d="M212.652,352.239a4.768,4.768,0,0,0,4.769,4.769h31.556v-.629a4.16,4.16,0,0,1,0-8.28v-.63H217.421A4.769,4.769,0,0,0,212.652,352.239Z" transform="translate(-212.652 -347.47)" fill="#dd4536"/>
            <path id="Path_148" data-name="Path 148" d="M213.218,352.2a4.166,4.166,0,0,0,4.161,4.161h31.556v-.02a4.16,4.16,0,0,1,0-8.28v-.02H217.379A4.165,4.165,0,0,0,213.218,352.2Z" transform="translate(-212.61 -347.428)" fill="#fcfcd4"/>
          </g>
          <g id="Group_239" data-name="Group 239" transform="translate(6.551 9.426)">
            <path id="Path_149" data-name="Path 149" d="M216.377,343.468h0a4.769,4.769,0,0,0,4.769,4.769H252.7v-.629a4.16,4.16,0,0,1,0-8.281V338.7H221.146A4.769,4.769,0,0,0,216.377,343.468Z" transform="translate(-216.377 -338.699)" fill="#2bb673"/>
            <path id="Path_150" data-name="Path 150" d="M216.944,343.426a4.165,4.165,0,0,0,4.16,4.161h31.557v-.02a4.16,4.16,0,0,1,0-8.281v-.02H221.1A4.165,4.165,0,0,0,216.944,343.426Z" transform="translate(-216.335 -338.657)" fill="#fcfcd4"/>
          </g>
          <g id="Group_240" data-name="Group 240" transform="translate(2.305)">
            <path id="Path_151" data-name="Path 151" d="M212.426,334.7a4.768,4.768,0,0,0,4.769,4.769h31.556v-.629a4.16,4.16,0,0,1,0-8.28v-.63H217.195A4.769,4.769,0,0,0,212.426,334.7Z" transform="translate(-212.426 -329.927)" fill="#1c75bc"/>
            <path id="Path_152" data-name="Path 152" d="M212.992,334.654a4.166,4.166,0,0,0,4.161,4.161h31.556v-.02a4.16,4.16,0,0,1,0-8.28v-.02H217.153A4.165,4.165,0,0,0,212.992,334.654Z" transform="translate(-212.384 -329.885)" fill="#fcfcd4"/>
          </g>
        </g>
        <g id="Group_243" data-name="Group 243" transform="translate(204.363 38.606)">
          <path id="Path_153" data-name="Path 153" d="M295.568,264.156c-.419,1.157-2.093,7.362.357,7.994s3.586.708,7.014-1.082,7.952-24.556,7.952-24.556-4.936.66-8.056,3.414S295.986,263,295.568,264.156Z" transform="translate(-293.641 -224.903)" fill="#14035b"/>
          <g id="Group_242" data-name="Group 242" transform="translate(0.947 64.875)">
            <path id="Path_154" data-name="Path 154" d="M313.242,364.437a32.32,32.32,0,0,0-.778-5.351l-5.393-.01s-8.866,3.653-10.49,4.182a3.039,3.039,0,0,0-1.988,2.849c-.109.863,6.525,1.739,7.786,1.488s2.861-1.292,3.164-1.224.642.9.642.9,6.444.03,6.885-.169S313.161,365.9,313.242,364.437Z" transform="translate(-294.591 -281.382)" fill="#0e0e30"/>
            <path id="Path_155" data-name="Path 155" d="M326.71,365.826a32.342,32.342,0,0,0-.778-5.351l-5.394-.009s-8.866,3.652-10.489,4.181a3.035,3.035,0,0,0-1.988,2.849c-.11.864,6.525,1.739,7.786,1.489s2.861-1.292,3.164-1.225.642.9.642.9,6.444.03,6.884-.169S326.629,367.289,326.71,365.826Z" transform="translate(-293.586 -281.279)" fill="#0e0e30"/>
            <path id="Path_156" data-name="Path 156" d="M324.485,325.321c.235-4.961,2.068-33.1,1.708-36.5s-24.011-1.524-24.011-1.524-4.109,32.162-4.67,40.29,6.421,37.846,7.105,38.088,8.157-.069,8.195-.862-5.639-32.1-5.132-35.449,5.248-28.542,5.248-28.542,1.453,25.9,1.368,27.689,3.146,38.454,4,38.707,8.688.035,8.89-.549S324.249,330.284,324.485,325.321Z" transform="translate(-294.375 -286.775)" fill="url(#linear-gradient-12)"/>
            <path id="Path_157" data-name="Path 157" d="M312.422,301.114a6.427,6.427,0,0,1,.239-1.27,6.424,6.424,0,0,0-4.118,4.628c-.706,3.555-2.4,18.905-3.531,21.167s-4.659,3.07-3.813,4.363,2.4.485,3.53,5.171,4.8,22.136,4.237,24.883c-.332,1.613-1.875,3.335-2.7,4.713,2.43-.048,6.249-.366,6.276-.934.039-.794-5.639-32.1-5.132-35.449C307.852,325.486,311.457,306.25,312.422,301.114Z" transform="translate(-294.108 -285.8)" fill="#14035b"/>
            <path id="Path_158" data-name="Path 158" d="M324.22,325.321c.235-4.961,2.068-33.1,1.708-36.5s-24.011-1.524-24.011-1.524-.359,2.8-.876,6.954a11.222,11.222,0,0,0,6.656,2.8c5.225,0,12.145-1.939,13.134,3.394s-1.554,23.106-.706,30.539,3.671,28.6,3.389,32.155c-.191,2.4-2.766,3.183-3.368,4.185,2.607-.006,6.636-.235,6.78-.652C327.128,366.08,323.983,330.284,324.22,325.321Z" transform="translate(-294.11 -286.775)" fill="#d3d3d3" style="mix-blend-mode: multiply;isolation: isolate"/>
          </g>
          <path id="Path_159" data-name="Path 159" d="M319.178,245.917a16.13,16.13,0,0,0-10.083,1.27,9.409,9.409,0,0,0-5.565,7.451c-.231,1.847-.571,4.258-1.065,7.2-1.276,7.607-1.574,30.708-1.574,30.708s-.107,2.264,10,3.383,16.445-1.791,16.445-1.791-.205-17.383.811-26.9C329.5,254.553,326.915,247.755,319.178,245.917Z" transform="translate(-293.174 -224.973)" fill="url(#linear-gradient-13)"/>
          <path id="Path_160" data-name="Path 160" d="M316.286,245.9a11.267,11.267,0,0,0-6.049,1.025s-2.055,1.1-2.222,2.522.991,2.447,3.183,2.5,3.677.154,5.348-.917,2.818-3.267,2.649-3.9S318.554,246.143,316.286,245.9Z" transform="translate(-292.644 -224.953)" fill="#230482"/>
          <path id="Path_161" data-name="Path 161" d="M301.307,253.661a3.243,3.243,0,0,0-3.272,2.178c-.391,1.41-1.53,4.465-1.53,4.465a36.257,36.257,0,0,0,3.533,1.109,12.944,12.944,0,0,0,.741-2.6c.086-.325.4-.345,1.445-.73a1.4,1.4,0,0,0,.921-1.443s1.155.566,1.775.26S302.746,253.677,301.307,253.661Z" transform="translate(-293.501 -224.37)" fill="#ffc2a9"/>
          <path id="Path_162" data-name="Path 162" d="M296.962,258.785a13.577,13.577,0,0,0-3.094,6.371c-.8,4.013,1.507,7.247,4.472,6.243s3.295-10.579,2.8-11.013A28.823,28.823,0,0,0,296.962,258.785Z" transform="translate(-293.709 -223.987)" fill="url(#linear-gradient-12)"/>
          <rect id="Rectangle_700" data-name="Rectangle 700" width="5.722" height="10.312" rx="0.791" transform="translate(5.185 29.282) rotate(-12.292)" fill="#0e0e30"/>
          <path id="Path_163" data-name="Path 163" d="M307.25,260.916c-.772-1.427-1.089-4.643-1.76-4.486s.027,3.121-.3,3.312-2.007-.328-3.2-1.217-2.436-2.628-2.556-1.826c-.1.7,1.039,2.131,1.339,2.492l.073.087s-.028-.032-.073-.087c-.253-.3-1.133-1.279-1.341-.732-.243.639,1.1,2.088,1.1,2.088s-1.32-1.109-1.28-.487a5.541,5.541,0,0,0,1.026,1.865s-.786-.746-.75-.181.609,1.552,2.416,2.289,3.647.224,4.765.835a18.6,18.6,0,0,0,2.181,1.282,26.589,26.589,0,0,0,1.3-2.864A7.037,7.037,0,0,1,307.25,260.916Z" transform="translate(-293.296 -224.164)" fill="#ffc2a9"/>
          <path id="Path_164" data-name="Path 164" d="M300.666,259c.045.055.073.087.073.087Z" transform="translate(-293.19 -223.972)" fill="#ffc2a9"/>
          <path id="Path_165" data-name="Path 165" d="M318.51,245.831c-1.927.865.944,3.737,2.074,9.486.874,4.449,2.419,10.867.215,11.254s-11.816-3.817-11.816-3.817L306.6,267.22s15.46,9.549,18.6,8.359,4.682-15.375,3.617-21.152C327.373,246.558,318.51,245.831,318.51,245.831Z" transform="translate(-292.748 -224.954)" fill="url(#linear-gradient-12)"/>
          <path id="Path_166" data-name="Path 166" d="M318.51,245.831a.989.989,0,0,0-.588.62c2.292.891,6.464,2.8,7.49,5.235,1.432,3.4,1.432,11.1,1.075,15.761s-2.507,5.193-7.343,3.761a95.657,95.657,0,0,1-11.977-5.051l-.565,1.062s15.46,9.549,18.6,8.359,4.682-15.375,3.617-21.152C327.373,246.558,318.51,245.831,318.51,245.831Z" transform="translate(-292.748 -224.954)" fill="#d3d3d3" style="mix-blend-mode: multiply;isolation: isolate"/>
          <path id="Path_167" data-name="Path 167" d="M314.961,240.571l-3.209,3.241a5.22,5.22,0,0,1-.34,3.172c-.739,1.127-3.288,2.1-2.576,3.4s5.42,1.729,7.134.36,3.361-2.728,2.564-3.583A20.655,20.655,0,0,1,314.961,240.571Z" transform="translate(-292.59 -225.346)" fill="#efab92"/>
          <path id="Path_168" data-name="Path 168" d="M315.687,240.628l-4,3.18a5.221,5.221,0,0,1-.34,3.172,9.723,9.723,0,0,1-1.776,1.589,4.99,4.99,0,0,0,3.144.391c2.234-.415,2.813.422,3.337,1.662,1.616-1.309,3.108-2.463,2.542-3.444A37.059,37.059,0,0,1,315.687,240.628Z" transform="translate(-292.526 -225.342)" fill="#ef9d84"/>
          <path id="Path_169" data-name="Path 169" d="M307.979,229.916a6.36,6.36,0,0,0-5.034,6.12s.071,2.9.852,3.877a6.788,6.788,0,0,1,1.55,2.807c.241,1.055,1.547,4.882,4.989,6.524s6.152-3.929,6.953-6.162.414-7.765-.855-10.284S311.888,228.866,307.979,229.916Z" transform="translate(-293.02 -226.167)" fill="#ffc2a9"/>
          <path id="Path_170" data-name="Path 170" d="M307.98,229.916a6.359,6.359,0,0,0-5.035,6.12,15.725,15.725,0,0,0,.22,2.112c2.044-.665,5.394-1.528,6.454-.442,1.56,1.6,1.4,3.5,2.311,3.881a3.326,3.326,0,0,1,2.459,2.59,4.984,4.984,0,0,1-3.43,5.288c3.143.75,5.578-4.286,6.329-6.383.8-2.233.414-7.765-.855-10.284S311.888,228.866,307.98,229.916Z" transform="translate(-293.02 -226.167)" fill="#efab92"/>
          <path id="Path_171" data-name="Path 171" d="M317.074,230.027s-1.619-3.917-5.573-3.606-8.7,4.077-10.43,3.965-3.287-.56-2.935.553,1.2,1.41,1.026,1.748-1.759-.2-.924.952a4.015,4.015,0,0,0,1.684,1.446,1.329,1.329,0,0,0-.36,1.244c.218.686.435,1.37,2.6,1.062a21.615,21.615,0,0,0,7.478-2.276,5.231,5.231,0,0,0,2.893,2.288c1.7.308,1.667,2.581,2.131,1.963s.279-3.576,1.6-2.676.855,3.592.364,4.125c0,0,1.084,1.636,2,.967s1.19-5.466.714-7.86A7.482,7.482,0,0,0,317.074,230.027Z" transform="translate(-293.39 -226.403)" fill="#0e0e30"/>
        </g>
        <g id="Group_244" data-name="Group 244" transform="translate(127.039 85.976)">
          <path id="Path_172" data-name="Path 172" d="M281.717,359.549c-3.806-.562-4.377-.167-4.926-1.666s-7.339-.457-7.339-.457a24.938,24.938,0,0,0-.792,4.571,6.086,6.086,0,0,0,.25,2.771,47.234,47.234,0,0,0,11.126.344c5.541-.585,6.912-.486,7.065-1a2.034,2.034,0,0,0-.082-1.713C286.67,361.993,285.523,360.11,281.717,359.549Z" transform="translate(-218.255 -264.027)" fill="#0e0e30"/>
          <path id="Path_173" data-name="Path 173" d="M246.851,290.539c-3.74.149-4.637,1.944-4.786,5.982a81.582,81.582,0,0,0,.863,11.032l8.111-.861a100.137,100.137,0,0,0-.6-10.619C249.843,291.436,246.851,290.539,246.851,290.539Z" transform="translate(-220.238 -268.989)" fill="#191f54"/>
          <path id="Path_174" data-name="Path 174" d="M247.123,318.736c-4.66-1.125-12.694-.965-15.426,5.945s4.659,7.552,8.195,8.517,22.174.964,23.78,1.124,2.339,6.414,3.786,10.11,4.239,17.644,4.239,17.644l8.2-.919c.643-2.892-3.213-35.993-5.785-38.243S247.123,318.736,247.123,318.736Z" transform="translate(-221.055 -266.925)" fill="url(#linear-gradient-12)"/>
          <path id="Path_175" data-name="Path 175" d="M246.62,318.736a17.86,17.86,0,0,0-8.769.054c1.374.583,3.717.946,8.286.749,0,0,19.282,1.286,21.853,3.214s4.644,5.8,5.126,10.778c.388,4,3.283,23.083,3.706,27.877l2.577-.251c.643-2.892-1.285-34.065-5.784-38.243C268.45,318.117,246.62,318.736,246.62,318.736Z" transform="translate(-220.551 -266.925)" fill="#d3d3d3" style="mix-blend-mode: multiply;isolation: isolate"/>
          <path id="Path_176" data-name="Path 176" d="M260.05,364.36c-3.721-.978-4.66-1.147-5.042-2.7s-7.244-1.265-7.244-1.265a24.945,24.945,0,0,0-1.292,4.456,6.085,6.085,0,0,0-.057,2.782,47.268,47.268,0,0,0,11.02,1.57c5.572.03,6.929-.258,7.137-.748s.429-.878.127-1.325S263.77,365.338,260.05,364.36Z" transform="translate(-219.921 -263.78)" fill="#0e0e30"/>
          <path id="Path_177" data-name="Path 177" d="M230.854,319.818a4.608,4.608,0,0,0-3.793,2.005c-1.669,2.411-3.582,6.447.046,8.865,5.431,3.62,27.152,2.586,27.411,3.879s-5.993,30.137-5.993,30.137,6.51,1.152,8.062.635,11.895-33.616,10.343-39.823C265.608,320.233,238.79,319.823,230.854,319.818Z" transform="translate(-221.507 -266.806)" fill="url(#linear-gradient-12)"/>
          <path id="Path_178" data-name="Path 178" d="M266.571,325.033c-.03-.054-.08-.1-.115-.156a2.724,2.724,0,0,0-.227-.3c-.058-.062-.135-.12-.2-.182a3.663,3.663,0,0,0-.276-.247c-.082-.062-.181-.12-.271-.182-.11-.074-.212-.149-.334-.221-.1-.059-.22-.115-.33-.173-.129-.069-.253-.139-.392-.2-.12-.056-.255-.109-.383-.162-.148-.064-.291-.129-.45-.19-.138-.053-.288-.1-.433-.153-.165-.059-.326-.119-.5-.175-.156-.051-.323-.1-.486-.145-.179-.054-.354-.109-.542-.16s-.359-.092-.539-.139-.375-.1-.572-.144-.392-.087-.589-.131-.394-.088-.6-.13-.41-.08-.617-.119-.426-.083-.644-.123-.429-.073-.644-.109-.443-.076-.671-.112-.457-.069-.686-.1-.453-.068-.686-.1-.463-.061-.7-.092l-.721-.092c-.234-.029-.472-.055-.708-.083s-.491-.057-.739-.084l-.723-.075c-.251-.025-.5-.052-.755-.075s-.492-.046-.739-.068l-.749-.067q-.379-.032-.759-.061c-.249-.02-.5-.041-.748-.059s-.5-.037-.752-.054l-.754-.053-.762-.047q-.369-.024-.738-.045c-.248-.015-.5-.028-.743-.042l-.75-.04-.724-.035-.732-.033-.737-.031-.693-.028-.718-.026-.676-.023c-.233-.009-.462-.015-.691-.021s-.443-.014-.66-.019l-.648-.017-.646-.015-.617-.013-.6-.012-.584-.01-.577-.009-.539-.007-.533-.005-.474,0-.522,0-.434,0-.419,0h-.631a4.584,4.584,0,0,0-3.546,1.7c.429,1.537.988,1.979,5.783,3.179,7.431,1.857,19.944,2.933,22.975,3.03s5.485,1.735,6.071,5.646-2.052,15.154-3.03,18.771-3.214,9.75-6.733,10.825a12.031,12.031,0,0,1-3.6.591c-.156.726-.247,1.148-.247,1.148s.677.119,1.643.264c.321.047.674.1,1.047.148l.174.024c.387.051.789.1,1.194.146l.15.016a12.488,12.488,0,0,0,3.853.035c1.066-.355,6.288-16.11,8.944-27.939q.182-.808.346-1.587a62.275,62.275,0,0,0,1.118-6.824,11.424,11.424,0,0,0-.064-3.472A1.836,1.836,0,0,0,266.571,325.033Z" transform="translate(-221.35 -266.806)" fill="#d3d3d3" style="mix-blend-mode: multiply;isolation: isolate"/>
          <path id="Path_179" data-name="Path 179" d="M249.91,293.3c-1.906-4.576-5.084-5.465-10.3-5.974,0,0-5.846.127-9.533,4.449s-6.863,25.42-6.863,29.614-.325,10.118,3.489,11.516-1.322-6.314,22.175-11.9c0,0-3.4-7.051-1.718-13.579C248.528,302.141,251.816,297.879,249.91,293.3Z" transform="translate(-221.643 -269.229)" fill="url(#linear-gradient-18)"/>
          <path id="Path_180" data-name="Path 180" d="M244.414,284.469c-.349-.291-4.51-1.7-4.51-1.7s-.778,3.514-1.772,4.838c-.918,1.223-2.069,2.365-.615,3.761s5.792,2.928,6.431,1.648-.873-2.443-.931-4.421S244.763,284.76,244.414,284.469Z" transform="translate(-220.628 -269.569)" fill="#e29d88"/>
          <path id="Path_181" data-name="Path 181" d="M250.612,275.388c-3.419-1.725-6.725-1.046-8.386,1.043s-3.082,7.142-2.77,9.364,1.752,7.906,5.257,7.046,5.451-4.153,5.877-5.085a6.423,6.423,0,0,1,1.975-2.3c.911-.755,1.535-3.428,1.535-3.428A6.017,6.017,0,0,0,250.612,275.388Z" transform="translate(-220.435 -270.192)" fill="#ffc2a9"/>
          <path id="Path_182" data-name="Path 182" d="M250.612,275.388c-3.419-1.725-6.725-1.046-8.386,1.043s-3.082,7.142-2.77,9.364c.293,2.087,1.58,7.221,4.636,7.131a4.717,4.717,0,0,1-2.161-5.559,3.148,3.148,0,0,1,2.777-1.927c.917-.183,1.135-1.969,2.887-3.151,1.191-.8,4.13.639,5.9,1.649a14.636,14.636,0,0,0,.609-1.914A6.015,6.015,0,0,0,250.612,275.388Z" transform="translate(-220.435 -270.192)" fill="#efab92"/>
          <path id="Path_183" data-name="Path 183" d="M253.317,274.592c-1.575-1.269-3.395-2.607-5.4-2.371l-.008-1.479a2.277,2.277,0,0,0-1.443.861,3.42,3.42,0,0,0-1.641-1.119q.29.693.581,1.385c-1.532-.415-2.388.521-3.334,1.493a9.146,9.146,0,0,0-2.292,2.836c-.95,2.24-1.658,6.976-.9,7.815s2.15-.538,2.15-.538c-.371-.62-.28-3.341,1.192-3.951s.694,2.237,1.022,2.935.754-1.527,2.477-1.485a5.207,5.207,0,0,0,3.285-1.645,25.038,25.038,0,0,1,2.445,1.95,4.918,4.918,0,0,0,3.165,1.106,6.892,6.892,0,0,0,2.692-.984,9.226,9.226,0,0,1-1.294-1.872,2.9,2.9,0,0,0,2.7-2.53C256.7,277.21,254.893,275.861,253.317,274.592Z" transform="translate(-220.499 -270.485)" fill="#0e0e30"/>
          <path id="Path_184" data-name="Path 184" d="M232.847,322.1l16.83,2.556,18.579-5.752.171-1.107-35.581,3.431Z" transform="translate(-220.925 -266.956)" fill="#617375"/>
          <path id="Path_185" data-name="Path 185" d="M232.847,321.33l16.773,2.288s18.3-5.433,18.682-5.433-16.012-1.683-16.012-1.683Z" transform="translate(-220.925 -267.053)" fill="#889ca0"/>
          <path id="Path_186" data-name="Path 186" d="M238.148,320.947l10.993,1.5c6.226-1.848,10.365-3.066,13.125-3.867-3.165-.33-7.129-.739-10.3-1.065Z" transform="translate(-220.529 -266.977)" fill="#617375"/>
          <path id="Path_187" data-name="Path 187" d="M255.816,314.265c-1.249-.239-4.758-4.046-5.116-4.818a16.3,16.3,0,0,1-.292-3.841l-4.905.465a40.212,40.212,0,0,0,.456,6.118c.416,1.546,7.122,3.5,7.836,3.742s0,1.309.654,1.785.774-.774,1.07-1.191.893,1.13,1.487,1.785,2.2.417,2.856,0,.357-2.022-.119-2.855S257.066,314.5,255.816,314.265Z" transform="translate(-219.981 -267.866)" fill="#ffc2a9"/>
          <path id="Path_188" data-name="Path 188" d="M249.59,311.6a5.7,5.7,0,0,1-1.842-5.758l-2.246.213a40.315,40.315,0,0,0,.455,6.118c.417,1.546,7.123,3.5,7.837,3.742s0,1.309.654,1.785.774-.774,1.071-1.191.892,1.13,1.486,1.785,2.2.417,2.856,0c.481-.306.445-1.257.2-2.071C256.909,315.13,251.975,313.454,249.59,311.6Z" transform="translate(-219.981 -267.848)" fill="#efab92"/>
          <path id="Path_189" data-name="Path 189" d="M243.84,314.094c-1.78-.381-15.63-4.575-16.011-5.719s1.906-4.066,1.906-4.066l-6.1-1.525s-2.669,5.591-1.653,8.387,9.912,3.813,16.9,4.575l3.431.89a3.923,3.923,0,0,0,2.415,1.906c1.652.38,2.854.2,3.558.762s1.525,1.906,1.906,1.525a8.162,8.162,0,0,0,.889-4.828C250.7,314.348,245.62,314.475,243.84,314.094Z" transform="translate(-221.752 -268.076)" fill="#ffc2a9"/>
          <path id="Path_190" data-name="Path 190" d="M244.79,316.207c-.6-1.194-15.927-3.981-19.311-5.375-2.569-1.057-1.126-5.549-.28-7.656l-1.562-.391s-2.669,5.591-1.653,8.387,9.912,3.813,16.9,4.575l3.431.89a3.927,3.927,0,0,0,2.415,1.906c1.652.38,2.854.2,3.558.762s1.525,1.906,1.906,1.525a7.074,7.074,0,0,0,.873-2.661C249.244,317.478,245.265,317.155,244.79,316.207Z" transform="translate(-221.752 -268.076)" fill="#efab92"/>
          <path id="Path_191" data-name="Path 191" d="M233,289.422c-6.226.38-10.674,14.613-10.674,14.613l7.752,3.176s6.608-8.768,6.608-13.215S233,289.422,233,289.422Z" transform="translate(-221.71 -269.073)" fill="#191f54"/>
          <path id="Path_192" data-name="Path 192" d="M273.592,302.621l-17.871,4.363a1.831,1.831,0,0,0-1.287,1.155l-5.977,16.516,18.807-5.719,7.023-15.313C274.6,302.951,274.156,302.483,273.592,302.621Z" transform="translate(-219.76 -268.09)" fill="#617375"/>
          <path id="Path_193" data-name="Path 193" d="M273.932,303l-17.871,4.363a1.833,1.833,0,0,0-1.287,1.155L248.8,325.036l18.807-5.718,6.7-15.878A.322.322,0,0,0,273.932,303Z" transform="translate(-219.735 -268.06)" fill="#889ca0"/>
        </g>
      </g>
      <path id="Path_194" data-name="Path 194" d="M2.109,0h294.1a2.109,2.109,0,0,1,2.109,2.109V7.165a2.109,2.109,0,0,1-2.109,2.109H2.109A2.109,2.109,0,0,1,0,7.165V2.109A2.109,2.109,0,0,1,2.109,0Z" transform="translate(112.735 376.511)" fill="url(#linear-gradient-19)"/>
    </g>
  </g>
</svg>
