<svg xmlns="http://www.w3.org/2000/svg" width="23.25" height="27.004" viewBox="0 0 23.25 27.004">
  <g id="Notification" transform="translate(1 1)">
    <path id="Path_425" d="M0,14.734V14.46a4.5,4.5,0,0,1,.752-2.273A6.088,6.088,0,0,0,2.245,9.295c0-.833,0-1.678.073-2.511C2.693,2.773,6.659,0,10.576,0h.1c3.917,0,7.883,2.773,8.271,6.784.073.833,0,1.678.061,2.511A6.194,6.194,0,0,0,20.5,12.2a4.383,4.383,0,0,1,.752,2.261v.262a4.458,4.458,0,0,1-1.055,2.987,5.632,5.632,0,0,1-3.566,1.714,56.347,56.347,0,0,1-12.018,0,5.693,5.693,0,0,1-3.566-1.714A4.5,4.5,0,0,1,0,14.734Z" transform="translate(0)" fill="none" stroke="#3a3a3a" stroke-linecap="round" stroke-linejoin="round" stroke-miterlimit="10" stroke-width="2"/>
    <path id="Path_421" d="M0,0A3.826,3.826,0,0,0,2.547,1.409,3.86,3.86,0,0,0,5.36.631,3.607,3.607,0,0,0,6.015,0" transform="translate(7.569 23.565)" fill="none" stroke="#3a3a3a" stroke-linecap="round" stroke-linejoin="round" stroke-miterlimit="10" stroke-width="2"/>
  </g>
</svg>
