<svg xmlns="http://www.w3.org/2000/svg" width="47" height="47" viewBox="0 0 47 47">
  <g id="Group_266" data-name="Group 266" transform="translate(-171 -1222)">
    <circle id="Ellipse_36" data-name="Ellipse 36" cx="23.5" cy="23.5" r="23.5" transform="translate(171 1222)" fill="#eaeaea" opacity="0.48"/>
    <path id="Fill_4" data-name="Fill 4" d="M5.694.439c-.068.068-.357.32-.6.557a25.806,25.806,0,0,0-4.7,6.887A5.644,5.644,0,0,0,0,9.285a2.339,2.339,0,0,0,.256,1.064,2.2,2.2,0,0,0,1.057.945,11.446,11.446,0,0,0,1.244.3,27.634,27.634,0,0,0,4.45.286,31.907,31.907,0,0,0,4.312-.253,9.656,9.656,0,0,0,1.552-.406A2.122,2.122,0,0,0,14.03,9.353V9.285a5.882,5.882,0,0,0-.477-1.57A25.773,25.773,0,0,0,8.916.98,6.656,6.656,0,0,0,8.268.406,2.067,2.067,0,0,0,7.024,0a2.17,2.17,0,0,0-1.33.439" transform="translate(200.442 1238.485) rotate(90)" fill="#f5df4d"/>
  </g>
</svg>
