<svg xmlns="http://www.w3.org/2000/svg" width="156.527" height="159.206" viewBox="0 0 156.527 159.206">
  <g id="Group_194" data-name="Group 194" transform="translate(-400.727 -299.997)">
    <g id="Group_187" data-name="Group 187" transform="translate(432.818 299.997)">
      <g id="Group_182" data-name="Group 182" transform="translate(15.919)">
        <path id="Path_47" data-name="Path 47" d="M574.008,300.165a1.72,1.72,0,0,1,1.483,0c9.519,3.539,19.058,7.032,28.577,10.57-1.542.607-3.128,1.1-4.7,1.622.007,2.68,0,5.36,0,8.04a4.96,4.96,0,0,1,.106,6.6,2.5,2.5,0,0,1-3.778-.279c-1.317-1.778-1.39-4.667.315-6.226.226-2.322-.046-4.67.05-7-.839.275-1.678.551-2.521.816-.143,5.542.139,11.1-.07,16.64a15.43,15.43,0,0,1-5.761,1.662,116.08,116.08,0,0,1-17.28.736,74.51,74.51,0,0,1-8.975-.637c-1.884-.3-3.884-.614-5.4-1.874.03-5.436-.027-10.869-.013-16.305q-.975-.373-1.954-.713c-2.876-.975-5.738-1.987-8.614-2.965,6.746-2.547,13.512-5.045,20.259-7.592C568.5,302.244,571.251,301.2,574.008,300.165Zm-18.617,10.5a49.156,49.156,0,0,0,4.769,1.761c4.746,1.569,9.426,3.373,14.2,4.823,6.6-2.123,13.144-4.415,19.725-6.587a9.821,9.821,0,0,0-1.277-.584c-6.05-2.2-12.066-4.481-18.12-6.667C568.28,305.886,561.812,308.214,555.391,310.665Zm19.294,9.993c-.9.209-1.738-.415-2.587-.624-4.255-1.473-8.517-2.935-12.769-4.421-.02,4.438.01,8.872.03,13.31,5.576,1.274,11.35,1.138,17.035,1.131a67.8,67.8,0,0,0,13.847-1.284c-.017-4.434.043-8.869-.03-13.3C585.016,317.14,579.858,318.934,574.684,320.659Z" transform="translate(-545.477 -299.997)" fill="#dbdbdb"/>
      </g>
      <g id="Group_183" data-name="Group 183" transform="translate(72.619 54.727)">
        <path id="Path_48" data-name="Path 48" d="M716.928,466.257a3.54,3.54,0,0,1,3.536-1.2c4.544.557,9.085,1.124,13.632,1.675a23.821,23.821,0,0,1,4.507.72,2.767,2.767,0,0,1,2.04,2.813c-.159,2.454-2.458,3.884-3.9,5.615q4.358,4.075,8.756,8.116c1,.892,2.1,2.07,1.784,3.539-.348,1.579-1.768,2.59-2.773,3.765-1.25,1.167-2.222,2.969-4.086,3.168-1.539.153-2.71-1-3.708-2-2.766-2.57-5.506-5.168-8.305-7.7-1.247,1.194-2.308,2.574-3.615,3.7a3.037,3.037,0,0,1-3.818.2,3.788,3.788,0,0,1-1.327-2.5q-1.492-7.965-2.932-15.937C716.5,468.93,716.1,467.434,716.928,466.257Zm2.783,2.04c1.068,5.808,2.106,11.622,3.217,17.423,1.453-1.337,2.537-3.131,4.328-4.056,1.652-.829,3.277.464,4.4,1.579,2.862,2.607,5.645,5.3,8.527,7.884,1.2-1.386,2.494-2.687,3.751-4.02-2.972-2.852-6.043-5.6-9.028-8.425-.952-.872-1.884-2.133-1.443-3.5.63-1.96,2.607-3,3.675-4.673a11.859,11.859,0,0,0-2.687-.431C729.535,469.514,724.63,468.854,719.711,468.3Z" transform="translate(-716.427 -464.998)" fill="#dbdbdb"/>
      </g>
      <g id="Group_184" data-name="Group 184" transform="translate(0.004 61.558)">
        <path id="Path_49" data-name="Path 49" d="M497.669,488.664a3.816,3.816,0,0,1,3.854-3.032c4.308-.083,8.62.007,12.932-.04,1.4.007,2.968-.017,4.106.942a4.167,4.167,0,0,1,1.337,3.439c.04,4.992.086,9.987-.046,14.975a3.813,3.813,0,0,1-3.765,3.035c-4.3.086-8.594,0-12.892.04a8.006,8.006,0,0,1-3.854-.577,5.37,5.37,0,0,1-1.615-1.811c-.421-3.327-.126-6.69-.212-10.03A62.085,62.085,0,0,1,497.669,488.664Zm3.274.315c-.292,2.746-.1,5.516-.143,8.272.086,2.488-.242,5.018.216,7.479,5.065-.04,10.129.066,15.191-.046.544-.09.362-.736.425-1.1,0-4.431-.01-8.859.007-13.29a2.657,2.657,0,0,0-.209-1.26,21.169,21.169,0,0,0-3.612-.119C508.86,488.956,504.9,488.817,500.943,488.979Z" transform="translate(-497.491 -485.593)" fill="#dbdbdb"/>
      </g>
      <path id="Path_50" data-name="Path 50" d="M599.747,490.09q17.7,0,35.386-.007c0,1.095,0,2.189.023,3.284-11.808.053-23.615.007-35.42.02C599.747,492.289,599.744,491.187,599.747,490.09Z" transform="translate(-565.821 -427.036)" fill="#dbdbdb"/>
      <g id="Group_185" data-name="Group 185" transform="translate(0 88.778)">
        <path id="Path_51" data-name="Path 51" d="M500.043,567.957a11.174,11.174,0,0,1,3.121-.222c4.318-.113,8.64-.086,12.955.017a3.649,3.649,0,0,1,3.293,1.94,8.2,8.2,0,0,1,.517,3.662c-.03,4.2.033,8.391-.033,12.587a4.074,4.074,0,0,1-1.609,3.476c-1.317.905-2.982.63-4.484.71-4.1-.013-8.2.04-12.292-.027a3.869,3.869,0,0,1-3.274-1.529c-.952-1.347-.7-3.081-.73-4.63-.063-4.09-.007-8.179.02-12.265A3.827,3.827,0,0,1,500.043,567.957Zm.859,3.134c-.232,4.716-.076,9.446-.109,14.166.063.537-.182,1.711.7,1.556,5.018,0,10.043.136,15.058-.086.143-4.793.03-9.589.073-14.385-.076-.428.143-1.264-.514-1.294-1.874-.179-3.764-.026-5.645-.076C507.28,571.035,504.083,570.836,500.9,571.092Z" transform="translate(-497.48 -567.662)" fill="#dbdbdb"/>
      </g>
      <g id="Group_186" data-name="Group 186" transform="translate(39.468 119.098)">
        <path id="Path_52" data-name="Path 52" d="M622,659.179a6.689,6.689,0,1,1-5.406,5.416A6.718,6.718,0,0,1,622,659.179Zm.312,3.3a3.391,3.391,0,1,0,4.133,4.176A3.42,3.42,0,0,0,622.311,662.479Z" transform="translate(-616.477 -659.078)" fill="#dbdbdb"/>
      </g>
    </g>
    <g id="Group_189" data-name="Group 189" transform="translate(400.727 312.475)">
      <g id="Group_188" data-name="Group 188" transform="translate(0 0)">
        <path id="Path_53" data-name="Path 53" d="M404.906,341.531a14.22,14.22,0,0,1,10.043-3.9q15.98,0,31.957,0c.007,1.1.01,2.192,0,3.29-10.65-.036-21.3-.017-31.95-.01a10.883,10.883,0,0,0-8.209,3.436,10.608,10.608,0,0,0-2.68,6.912c-.043,13.38-.113,26.756-.076,40.139.162,19.022.023,38.046.09,57.071a14.2,14.2,0,0,0,.232,2.182c.66,4.793,5.284,8.289,9.987,8.4,8.849.129,17.7-.1,26.547-.04,31.738.033,63.479-.086,95.214.073,2.308.023,4.617-.119,6.929-.076A10.3,10.3,0,0,0,553.9,448.108c-.066-13.7.123-27.4.073-41.1-.119-17.579-.06-35.161-.07-52.74.076-2.769.036-5.7-1.41-8.163a10.455,10.455,0,0,0-9.181-5.151c-5.015,0-10.03-.036-15.042.017-6.027-.136-12.053-.027-18.08-.056,0-1.095,0-2.186.013-3.28,11.277.033,22.561-.073,33.837.05a13.785,13.785,0,0,1,10.584,5.579,15.676,15.676,0,0,1,2.624,8.494c-.106,30.9-.013,61.808-.046,92.71a36.995,36.995,0,0,1-.315,7.015,13.267,13.267,0,0,1-5.466,8.395A14.648,14.648,0,0,1,543,462.33q-23.055-.005-46.106,0a13.535,13.535,0,0,0,13.585,13.914c3.539.007,7.081-.053,10.623-.007a4.513,4.513,0,0,1,4.123,2.245,3.957,3.957,0,0,1-1.891,5.357c-2.02.809-4.259.338-6.372.511-6.9-.169-13.808.027-20.71-.056-19.794.027-39.589-.086-59.383-.013a4.511,4.511,0,0,1-3.39-1.605,3.969,3.969,0,0,1-.179-4.6,4.112,4.112,0,0,1,3.227-1.781c4.282-.176,8.57.046,12.849-.113a13.148,13.148,0,0,0,11.791-9.642,18.683,18.683,0,0,0,.534-4.2q-20.05-.02-40.1,0c-2.653-.01-5.313.1-7.964-.023a13.84,13.84,0,0,1-11.294-7.214,16.183,16.183,0,0,1-1.615-6.806c.063-32.342,0-64.687.033-97.032A13.928,13.928,0,0,1,404.906,341.531Zm60.086,120.793a17.069,17.069,0,0,1-4.4,11.874,16.315,16.315,0,0,1-11.333,5.287c-4.136.113-8.275-.033-12.411.09a.845.845,0,0,0-.945.72c.216.687,1,.743,1.615.723q40.791-.01,81.582,0a10.306,10.306,0,0,0,2.859-.189.625.625,0,0,0-.219-1.194c-1.847-.252-3.731-.04-5.589-.106-3.33-.086-6.726.3-9.987-.567a16.3,16.3,0,0,1-8.1-4.813,16.832,16.832,0,0,1-4.454-11.821Q479.3,462.322,464.992,462.324Z" transform="translate(-400.727 -337.619)" fill="#dbdbdb"/>
      </g>
      <path id="Path_54" data-name="Path 54" d="M420.907,374.453c13.148-.023,26.3.053,39.446-.04.04,1.115.04,2.232.036,3.35q-18.09-.02-36.179-.007.01,43.318.013,86.637l.57.05q67.791.05,135.585.013.03-43.353.017-86.7-17.6.01-35.194,0c-.511,0-1.022,0-1.529.007.007-1.108.007-2.219-.013-3.327,13.343.076,26.687-.02,40.027.046-.06,31.071-.01,62.146-.023,93.221q-71.383-.05-142.766-.023Q420.922,421.065,420.907,374.453Z" transform="translate(-414.207 -362.209)" fill="#dbdbdb"/>
      <path id="Path_55" data-name="Path 55" d="M599.757,579.953q23.811.025,47.625,0c0,1.114.013,2.232-.043,3.347-15.861-.07-31.721-.017-47.579-.03C599.76,582.165,599.757,581.061,599.757,579.953Z" transform="translate(-533.744 -499.577)" fill="#dbdbdb"/>
    </g>
    <g id="Group_190" data-name="Group 190" transform="translate(466.628 340.954)">
      <path id="Path_56" data-name="Path 56" d="M599.523,423.483c17.582.023,35.164-.013,52.75.013-.007,1.1-.013,2.2-.043,3.3-17.605-.036-35.211.033-52.813-.036A23.067,23.067,0,0,0,599.523,423.483Z" transform="translate(-599.417 -423.483)" fill="#dbdbdb"/>
    </g>
    <g id="Group_191" data-name="Group 191" transform="translate(466.737 374.109)">
      <path id="Path_57" data-name="Path 57" d="M599.747,523.448c11.8.01,23.605-.017,35.406.01-.007,1.1-.007,2.2-.013,3.3q-17.692-.035-35.386-.007C599.75,525.651,599.754,524.55,599.747,523.448Z" transform="translate(-599.747 -523.446)" fill="#dbdbdb"/>
    </g>
    <g id="Group_192" data-name="Group 192" transform="translate(466.723 403.982)">
      <path id="Path_58" data-name="Path 58" d="M599.775,616.627c-.156-.882.007-2.1-.066-3.114,1.449.7,3.088.345,4.634.395q21.239.04,42.481.02-.015,1.149-.036,2.308c-14.036.093-28.076-.04-42.116.036C603.039,616.319,601.344,616.037,599.775,616.627Z" transform="translate(-599.705 -613.513)" fill="#dbdbdb"/>
    </g>
    <g id="Group_193" data-name="Group 193" transform="translate(466.727 403.903)">
      <path id="Path_59" data-name="Path 59" d="M599.717,613.353c15.867-.143,31.738.013,47.605-.08.03,1.1.03,2.2,0,3.3-10.458-.063-20.919-.013-31.376-.03-5.386-.05-10.779.1-16.162-.08,1.569-.59,3.264-.308,4.9-.355,14.04-.076,28.08.056,42.116-.036q.02-1.159.036-2.308-21.239.01-42.481-.02C602.8,613.7,601.166,614.056,599.717,613.353Z" transform="translate(-599.717 -613.273)" fill="#dbdbdb"/>
    </g>
  </g>
</svg>
