<svg id="Iconly_Bulk_Shield_Fail" data-name="Iconly/Bulk/Shield Fail" xmlns="http://www.w3.org/2000/svg" width="46.75" height="55" viewBox="0 0 46.75 55">
  <g id="Shield_Fail" data-name="Shield Fail">
    <path id="Fill_1" data-name="Fill 1" d="M23.611,55a2.139,2.139,0,0,1-.986-.237l-9.9-5.126A23.172,23.172,0,0,1,6,44.642,22.67,22.67,0,0,1,.114,29.59L0,11.342A4.983,4.983,0,0,1,3.375,6.633L21.56.294A5.177,5.177,0,0,1,24.943.275L43.2,6.4a4.975,4.975,0,0,1,3.436,4.662l.116,18.262a22.664,22.664,0,0,1-5.679,15.112,23.2,23.2,0,0,1-6.659,5.072L24.6,54.749a2.112,2.112,0,0,1-.986.251" transform="translate(0 0)" fill="#f9f9f9" opacity="0.4"/>
    <path id="Fill_4" data-name="Fill 4" d="M10.216,7.089l3.735-3.638a1.983,1.983,0,0,0,0-2.858,2.117,2.117,0,0,0-2.938,0L7.278,4.228,3.546.593a2.117,2.117,0,0,0-2.938,0,1.983,1.983,0,0,0,0,2.858L4.343,7.089.608,10.726a1.983,1.983,0,0,0,0,2.858,2.115,2.115,0,0,0,2.938,0L7.278,9.95l3.735,3.635a2.115,2.115,0,0,0,2.938,0,1.983,1.983,0,0,0,0-2.858Z" transform="translate(16.095 19.655)" fill="#f9f9f9"/>
  </g>
</svg>
