<svg id="Iconly_Bulk_Shield_Done" data-name="Iconly/Bulk/Shield Done" xmlns="http://www.w3.org/2000/svg" width="46.447" height="55" viewBox="0 0 46.447 55">
  <g id="Shield_Done" data-name="Shield Done" transform="translate(0 0)">
    <path id="Fill_1" data-name="Fill 1" d="M23.46,55a2.125,2.125,0,0,1-.982-.237l-9.839-5.126a23.108,23.108,0,0,1-6.681-4.994A22.75,22.75,0,0,1,.116,29.59L0,11.342A4.983,4.983,0,0,1,3.356,6.633L21.421.294A5.111,5.111,0,0,1,24.783.275L42.917,6.4a4.972,4.972,0,0,1,3.413,4.662l.116,18.262A22.753,22.753,0,0,1,40.8,44.435a23.031,23.031,0,0,1-6.615,5.072l-9.751,5.242A2.077,2.077,0,0,1,23.46,55" transform="translate(0 0)" fill="#f9f9f9" opacity="0.4"/>
    <path id="Fill_4" data-name="Fill 4" d="M7.312,14.616a2.079,2.079,0,0,1-1.463-.582L.612,8.964A1.994,1.994,0,0,1,.6,6.106a2.093,2.093,0,0,1,2.918-.019L7.282,9.733,16.482.6A2.093,2.093,0,0,1,19.4.583a1.992,1.992,0,0,1,.019,2.858L8.767,14.015a2.07,2.07,0,0,1-1.455.6" transform="translate(14.051 19.266)" fill="#f9f9f9"/>
  </g>
</svg>
