<svg xmlns="http://www.w3.org/2000/svg" width="50.167" height="47.569" viewBox="0 0 50.167 47.569">
  <g id="Page-1" transform="translate(0.017 0.012)">
    <g id="_010---Parrot" data-name="010---Parrot" transform="translate(-0.017 -0.012)">
      <path id="Shape" d="M47.047,9.514,35.805,33.726c-5.188,0-12.971-2.594-11.241-9.512a11.813,11.813,0,0,0,.458-3.563c-.19-2.741-2.4-2.023-3.052-3.355a2.3,2.3,0,0,1-.156-1.314c.294-2.248,2.905-5.949,9.667-8.2C37.734,5.7,42.308,8.079,45.654,6.41A10.49,10.49,0,0,1,47.047,9.514Z" transform="translate(-3.797 -1.721)" fill="#ecf0f1"/>
      <path id="Shape-2" data-name="Shape" d="M42.841,5.676c-3.346,1.669-7.921-.709-14.172,1.375C21.906,9.3,19.295,13,19,15.249c-2.655-.346-6.07.847-10.221,7.367C2.727,32.128,4.456,45.1,4.456,45.1A3.167,3.167,0,0,1,1,41.639V27.8C1,9.645,25.209,1,33.856,1A10.093,10.093,0,0,1,42.841,5.676Z" transform="translate(-0.983 -0.988)" fill="#2fa8cc"/>
      <path id="Shape-3" data-name="Shape" d="M25.717,49.051c-1.729,1.729-4.324.865-4.324.865a8.944,8.944,0,0,1-3.459.865,8.944,8.944,0,0,1-3.459-.865c-3.459.865-5.188-.865-5.188-.865-3.459.865-4.324-1.729-4.324-1.729S3.235,34.351,9.288,24.839c4.151-6.52,7.566-7.713,10.221-7.367a2.3,2.3,0,0,0,.156,1.314c.657,1.332,2.862.614,3.052,3.355-2.5,1.2-7.376,3.182-7.376,9.615C15.341,41.268,21.394,46.456,25.717,49.051Z" transform="translate(-1.491 -3.211)" fill="#f0c419"/>
      <path id="Shape-4" data-name="Shape" d="M34.294,45.466c-3.459-1.729-1.729,3.459-1.729,3.459-.865,3.459-5.188.865-5.188.865C23.053,47.2,17,42.007,17,32.5c0-6.433,4.877-8.414,7.376-9.615a11.813,11.813,0,0,1-.458,3.563c-1.729,6.918,6.053,9.512,11.241,9.512C40.347,42.007,34.294,45.466,34.294,45.466Z" transform="translate(-3.15 -3.95)" fill="#4fba6f"/>
      <path id="Shape-5" data-name="Shape" d="M56.159,22.106C56.159,14.324,49.241,10,49.241,10a127.372,127.372,0,0,0-8.647,10.376C38,24.7,38,34.212,38,34.212s8.82,1.6,14.1-6c1.314,3.5-.977,8.267-1.115,8.578.3-.415,5.171-7.142,5.171-14.683Z" transform="translate(-5.991 -2.207)" fill="#35495e"/>
      <path id="Shape-6" data-name="Shape" d="M52.1,29.834c-5.283,7.6-14.1,6-14.1,6S38,26.324,40.594,22a23.9,23.9,0,0,1,5.188,5.188c2.594,3.459,5.188.865,5.188.865A4.914,4.914,0,0,1,52.1,29.834Z" transform="translate(-5.991 -3.831)" fill="#2c3e50"/>
      <circle id="Oval" cx="2.594" cy="2.594" r="2.594" transform="translate(25.956 8.658)" fill="#3f5c6c"/>
      <circle id="Oval-2" data-name="Oval" cx="1.729" cy="1.729" r="1.729" transform="translate(26.821 9.522)" fill="#d1d4d1"/>
      <circle id="Oval-3" data-name="Oval" cx="0.865" cy="0.865" r="0.865" transform="translate(27.685 10.387)" fill="#35495e"/>
    </g>
  </g>
</svg>
